# xmcd
#
# Track frame offsets: 
#        150
#        31070
#        42491
#        59654
#        83101
#        99943
#        122512
#        144149
#        160081
#        174569
#        200084
#
# Disc length: 2768 seconds
#
# Revision: 0
# Processed by: cddbd v1.5.1PL2 Copyright (c) Steve Scherf et al.
# Submitted via: ExactAudioCopy v0.95b4
#
DISCID=8b0ace0b
DTITLE=Alaska - 1993-11-06 - The New Ritz - Baltimore MD - Disc 1
DYEAR=1993
DGENRE=Progressive Rock
TTITLE0=Comfortably Numb
TTITLE1=Ralph's Other Ball
TTITLE2=Tie Your Mother Down
TTITLE3=Perfect Strangers
TTITLE4=Spanish Castle Magic
TTITLE5=Pretzel Logic
TTITLE6=Bloody Well Right
TTITLE7=For The Moment
TTITLE8=China Grove
TTITLE9=Every Word Every Deed
TTITLE10=Bullet The Blue Sky (incomplete)
EXTD=
EXTT0=
EXTT1=
EXTT2=
EXTT3=
EXTT4=
EXTT5=
EXTT6=
EXTT7=
EXTT8=
EXTT9=
EXTT10=
PLAYORDER=
